<svg width="334" height="61" viewBox="0 0 334 61" fill="none" xmlns="http://www.w3.org/2000/svg">
<path d="M198.86 48.78L198.34 51.94C197.12 52.12 195.86 52.24 194.62 52.24C191.48 52.24 187.08 50.92 187.08 45.7C187.08 40.84 190.88 38.42 195.38 38.42C196.58 38.42 197.78 38.58 198.96 38.78L199.1 41.82C198.08 41.58 197.04 41.34 195.98 41.34C192.6 41.34 191.28 43.66 191.28 45.66C191.28 48.1 193.02 49.32 195.3 49.32C196.52 49.32 197.7 49.08 198.86 48.78ZM209.938 48.16H205.018L203.258 52H198.657C200.078 49.66 204.598 41 205.698 38.66H210.737C212.278 43.14 213.938 47.58 215.638 52H211.197C210.858 50.7 210.398 49.44 209.938 48.16ZM206.198 45.36H209.238L207.998 41.54L206.198 45.36ZM222.486 41.46H220.766C220.546 44.96 220.446 48.48 220.406 52H216.266C216.726 47.86 216.886 44 216.906 38.66H223.966C224.926 38.66 228.766 38.76 228.766 42.2C228.766 44.3 227.526 45.44 225.646 46.1C226.426 48.1 227.406 50.02 228.246 52H223.806C223.086 49.46 222.146 47 221.226 44.52C221.546 44.58 221.886 44.62 222.206 44.62C223.366 44.62 224.746 44.18 224.746 42.8C224.746 41.46 223.406 41.46 222.486 41.46ZM239.728 49.16L239.848 47H238.048L238.168 44.2H243.928C243.728 46.72 243.608 49.22 243.528 51.72C241.748 52.04 239.928 52.24 237.688 52.24C230.788 52.24 230.068 47.92 230.068 45.78C230.068 42.04 232.668 38.42 238.528 38.42C240.208 38.42 241.808 38.62 243.388 38.94L243.528 42.08C242.188 41.66 240.768 41.34 239.348 41.34C236.428 41.34 234.268 42.86 234.268 45.98C234.268 48.2 235.628 49.44 237.808 49.44C238.468 49.44 239.108 49.3 239.728 49.16ZM253.915 38.42C257.995 38.42 261.615 40.56 261.615 45.02C261.615 49.88 258.015 52.24 253.475 52.24C249.375 52.24 245.615 50.28 245.615 45.72C245.615 40.2 250.055 38.42 253.915 38.42ZM253.775 41.34C251.335 41.34 249.815 43.22 249.815 45.58C249.815 47.78 251.355 49.32 253.555 49.32C255.955 49.32 257.415 47.4 257.415 45.12C257.415 42.96 255.975 41.34 253.775 41.34Z" fill="white"/>
<path d="M3.672 5.988H11.448C10.944 13.98 10.368 21.972 10.224 30H2.412C2.88 25.824 3.672 12.9 3.672 5.988ZM19.296 5.988H27.864L18.972 17.256L27.72 30H18.684C16.344 25.68 13.752 21.504 11.196 17.328C13.932 13.584 16.776 9.912 19.296 5.988ZM37.8937 30H30.0097C30.4777 22.908 31.0537 15.78 31.0537 5.988H38.8657C38.2177 13.98 37.9297 22.008 37.8937 30ZM52.8196 5.988L61.3156 21.54H61.3876C61.5676 19.236 61.9996 10.2 61.9996 5.988H68.8756C68.6596 8.436 67.6516 23.7 67.5436 30H58.7596C55.9876 24.78 52.6756 19.812 50.1196 14.736H50.0476C49.9396 16.896 49.5076 26.4 49.5076 30H42.5956C43.0636 26.184 43.8196 12.9 43.8196 5.988H52.8196ZM89.539 24.888L89.755 21H86.515L86.731 15.96H97.099C96.739 20.496 96.523 24.996 96.379 29.496C93.175 30.072 89.899 30.432 85.867 30.432C73.447 30.432 72.151 22.656 72.151 18.804C72.151 12.072 76.831 5.556 87.379 5.556C90.403 5.556 93.283 5.916 96.127 6.492L96.379 12.144C93.967 11.388 91.411 10.812 88.855 10.812C83.599 10.812 79.711 13.548 79.711 19.164C79.711 23.16 82.159 25.392 86.083 25.392C87.271 25.392 88.423 25.14 89.539 24.888Z" fill="white"/>
<path d="M129.758 24.888L129.974 21H126.734L126.95 15.96H137.318C136.958 20.496 136.742 24.996 136.598 29.496C133.394 30.072 130.118 30.432 126.086 30.432C113.666 30.432 112.37 22.656 112.37 18.804C112.37 12.072 117.05 5.556 127.598 5.556C130.622 5.556 133.502 5.916 136.346 6.492L136.598 12.144C134.186 11.388 131.63 10.812 129.074 10.812C123.818 10.812 119.93 13.548 119.93 19.164C119.93 23.16 122.378 25.392 126.302 25.392C127.49 25.392 128.642 25.14 129.758 24.888ZM159.506 30H140.822C141.722 22.044 142.118 14.016 142.19 5.988H149.966C149.786 8.4 149.066 19.2 148.958 24.852H152.99C155.294 24.852 157.598 24.852 159.902 24.744L159.506 30ZM176.458 5.556C183.802 5.556 190.318 9.408 190.318 17.436C190.318 26.184 183.838 30.432 175.666 30.432C168.286 30.432 161.518 26.904 161.518 18.696C161.518 8.76 169.51 5.556 176.458 5.556ZM176.206 10.812C171.814 10.812 169.078 14.196 169.078 18.444C169.078 22.404 171.85 25.176 175.81 25.176C180.13 25.176 182.758 21.72 182.758 17.616C182.758 13.728 180.166 10.812 176.206 10.812ZM206.668 30H193.24C193.78 26.148 194.248 12.9 194.212 5.988H208.036C212.14 5.988 215.056 7.464 215.056 11.568C215.056 14.7 213.472 16.896 210.592 17.652V17.724C213.4 18.048 215.308 20.244 215.308 23.232C215.308 27.552 212.068 30 206.668 30ZM200.872 20.172L200.62 25.284H204.076C206.02 25.284 208.072 25.032 208.072 22.548C208.072 21.216 207.316 20.172 205.264 20.172H200.872ZM201.232 10.704L201.052 15.456H203.932C206.704 15.456 207.82 14.592 207.82 12.828C207.82 10.848 205.984 10.704 204.436 10.704H201.232ZM235.252 23.088H226.396L223.228 30H214.948C217.504 25.788 225.64 10.2 227.62 5.988H236.692C239.464 14.052 242.452 22.044 245.512 30H237.52C236.908 27.66 236.08 25.392 235.252 23.088ZM228.52 18.048H233.992L231.76 11.172L228.52 18.048ZM265.326 30H246.642C247.542 22.044 247.938 14.016 248.01 5.988H255.786C255.606 8.4 254.886 19.2 254.778 24.852H258.81C261.114 24.852 263.418 24.852 265.722 24.744L265.326 30Z" fill="#FCE400"/>
<g clip-path="url(#clip0_1320_2)">
<path d="M323.502 52.8254C322.312 53.8509 321.038 54.7849 319.697 55.6149C317.643 56.8836 315.427 57.911 313.083 58.6608C310.191 59.5877 307.107 60.0872 303.907 60.0872C301.507 60.0872 299.173 59.8071 296.933 59.274C294.521 58.7031 292.223 57.8405 290.075 56.725C290.067 56.7206 290.06 56.718 290.056 56.7153C287.936 55.614 285.963 54.2659 284.178 52.7117C282.978 51.6694 281.863 50.5328 280.844 49.3142C279.274 47.4419 277.928 45.3749 276.848 43.1537C275.424 40.2303 274.462 37.0407 274.055 33.6803H280.896C281.103 34.9958 281.422 36.276 281.842 37.5095C282.399 39.1527 283.136 40.714 284.029 42.1704C284.058 42.218 284.086 42.262 284.117 42.3096C284.513 42.9484 284.942 43.5687 285.401 44.1652C286.368 45.4313 287.464 46.5935 288.669 47.6358C290.468 49.1944 292.51 50.4817 294.731 51.4315C294.738 51.4359 294.745 51.4385 294.752 51.4412C297.084 52.4412 299.611 53.0677 302.262 53.2518C302.804 53.2914 303.353 53.3108 303.908 53.3108C305.331 53.3108 306.727 53.1831 308.08 52.9381C310.603 52.4809 312.984 51.62 315.154 50.42C316.542 49.6535 317.844 48.7503 319.042 47.7248L323.503 52.8245L323.502 52.8254Z" fill="#DCC516"/>
<path d="M334 30.0872C334 31.3322 333.924 32.5613 333.777 33.7684C333.154 38.8981 331.244 43.633 328.38 47.6366L324.822 43.5696L324.012 42.6435L323.74 42.3308C325.321 39.7624 326.417 36.8672 326.907 33.7684H311.132L313.364 36.3235H309.121L308.658 35.7949L308.645 35.779L306.887 33.7684L300.505 33.6803L300.755 33.9666L302.994 36.5271L305.45 39.336L305.464 39.3527L307.665 41.8682C307.817 42.0426 307.694 42.3158 307.462 42.3158H299.733C299.118 42.3158 298.532 42.0497 298.128 41.5862L296.099 39.2663L292.951 35.6662L292.266 34.8821L291.246 33.7164L288.576 30.6652C288.395 30.459 288.396 30.1507 288.578 29.9463L291.29 26.8818L292.92 25.0404L294.097 23.7099L294.099 23.7073L296.056 21.494L298.272 18.9909L299.448 17.6604C299.853 17.2023 300.435 16.9406 301.047 16.9406H308.953C309.185 16.9406 309.309 17.2146 309.154 17.3891L305.554 21.4579L302.966 24.3822L300.744 26.8977H307.042L308.687 25.0386L309.848 23.7258H314.377L311.569 26.8977H333.832C333.943 27.9462 334 29.0114 334 30.089V30.0872Z" fill="#DCC516"/>
<path d="M328.72 13.0779L324.839 17.4631L324.127 18.2693L324.047 18.3591C324.031 18.3283 324.012 18.2975 323.995 18.2693C323.342 17.1591 322.597 16.1071 321.774 15.1238C321.086 14.2982 320.338 13.5229 319.544 12.8039C318.368 11.736 317.081 10.788 315.701 9.97915C313.551 8.71303 311.179 7.78173 308.658 7.26101C307.126 6.94294 305.537 6.77553 303.907 6.77553C300.548 6.77553 297.353 7.48744 294.468 8.7703C292.228 9.76328 290.172 11.0999 288.373 12.7149C287.194 13.766 286.126 14.9379 285.185 16.2093C283.7 18.2085 282.528 20.4579 281.743 22.8791C281.324 24.1708 281.012 25.5153 280.826 26.8968H274C274.36 23.443 275.308 20.1636 276.742 17.16C277.791 14.9485 279.107 12.8876 280.642 11.0162C281.642 9.79764 282.732 8.66105 283.91 7.61168C285.706 6.01075 287.698 4.62216 289.846 3.48557C294.043 1.25907 298.829 0 303.907 0C311.648 0 318.704 2.92343 324.032 7.72886C325.798 9.31834 327.373 11.1149 328.72 13.0788V13.0779Z" fill="#DCC516"/>
<path d="M323.724 42.5792H314.483L313.129 41.0294L311.831 39.5483L309.089 36.4117H313.485L311.175 33.7684H316.315L317.936 35.6248L318.627 36.4143L318.901 36.7271L323.823 42.3563C323.899 42.4435 323.837 42.5792 323.722 42.5792H323.724Z" fill="white"/>
<path d="M316.489 26.8959H311.551L314.359 23.724H309.863L312.636 20.5918L313.841 19.2287L314.699 18.2604H323.831C323.947 18.2604 324.008 18.397 323.932 18.4834L316.488 26.8951L316.489 26.8959Z" fill="white"/>
<path d="M310.748 11.0268C310.833 10.9712 310.939 11.062 310.897 11.1554L309.707 13.7704L308.665 16.0595H300.949L300.916 15.9864L299.907 13.7704L298.718 11.1554C298.675 11.062 298.78 10.9712 298.867 11.0268L302.352 13.2814C302.397 13.3105 302.457 13.2999 302.49 13.2568L304.725 10.2673C304.765 10.2126 304.847 10.2126 304.889 10.2673L307.126 13.2568C307.158 13.2999 307.218 13.3105 307.263 13.2814L310.749 11.0268H310.748Z" fill="white"/>
<path d="M293.405 16.8516C294.353 16.8516 295.075 17.7018 294.922 18.6375L294.711 19.9266L294.096 23.6773L294.093 23.68L292.915 25.0113L291.285 26.8536L288.605 29.8819C288.404 30.1093 288.403 30.4502 288.602 30.6784L291.24 33.6926L292.26 34.8592L291.945 36.7773L291.036 42.3158H284.121L284.028 42.2074L285.426 33.6935L285.468 33.4248L285.471 33.4221L286.345 28.0951L286.547 26.8536L287.808 19.1706L288.19 16.8525H293.406L293.405 16.8516Z" fill="white"/>
</g>
<defs>
<clipPath id="clip0_1320_2">
<rect width="60" height="60.0863" fill="white" transform="translate(274)"/>
</clipPath>
</defs>
</svg>
