<svg width="249" height="62" viewBox="0 0 249 62" fill="none" xmlns="http://www.w3.org/2000/svg">
<path d="M178.392 41.312H175.392C174.888 39.344 173.616 37.904 171.12 37.904C167.448 37.904 165.912 41.144 165.912 44.432C165.912 47.72 167.448 50.96 171.12 50.96C173.784 50.96 175.248 48.968 175.488 46.472H178.416C178.176 50.576 175.272 53.408 171.12 53.408C165.984 53.408 162.912 49.328 162.912 44.432C162.912 39.536 165.984 35.456 171.12 35.456C174.984 35.48 178.032 37.616 178.392 41.312ZM187.264 38.816L184.672 46.184H189.904L187.336 38.816H187.264ZM179.152 53L185.728 35.864H188.92L195.52 53H192.304L190.696 48.464H183.856L182.248 53H179.152ZM200.152 38.312V43.664H205.072C206.968 43.664 208 42.728 208 40.928C208 38.744 206.584 38.312 205.024 38.312H200.152ZM197.152 53V35.864H205.336C209.08 35.864 211 37.592 211 40.496C211 43.784 208.72 44.624 208.168 44.816V44.864C209.2 45.008 210.712 45.776 210.712 48.488C210.712 50.48 211 52.304 211.648 53H208.432C207.976 52.256 207.976 51.32 207.976 50.48C207.976 47.336 207.328 45.944 204.568 45.944H200.152V53H197.152ZM229.003 43.976V53H227.083L226.627 50.984C225.019 52.808 223.555 53.408 221.467 53.408C216.331 53.408 213.259 49.328 213.259 44.432C213.259 39.536 216.331 35.456 221.467 35.456C225.211 35.456 228.355 37.448 228.811 41.312H225.883C225.595 39.056 223.627 37.904 221.467 37.904C217.795 37.904 216.259 41.144 216.259 44.432C216.259 47.72 217.795 50.96 221.467 50.96C224.539 51.008 226.219 49.16 226.267 46.256H221.707V43.976H229.003ZM239.558 35.456C244.694 35.456 247.766 39.536 247.766 44.432C247.766 49.328 244.694 53.408 239.558 53.408C234.422 53.408 231.35 49.328 231.35 44.432C231.35 39.536 234.422 35.456 239.558 35.456ZM239.558 37.904C235.886 37.904 234.35 41.144 234.35 44.432C234.35 47.72 235.886 50.96 239.558 50.96C243.23 50.96 244.766 47.72 244.766 44.432C244.766 41.144 243.23 37.904 239.558 37.904Z" fill="white"/>
<path d="M2.484 29V3.296H8.136V13.952L18.18 3.296H25.236L15.192 13.448L26.208 29H19.116L11.376 17.444L8.136 20.72V29H2.484ZM28.4645 29V3.296H34.1165V29H28.4645ZM39.0817 29V3.296H44.6977L55.4257 20.54H55.4977V3.296H60.7897V29H55.1377L44.4457 11.792H44.3737V29H39.0817ZM84.9173 29L84.3413 26.084C82.3613 28.64 79.7693 29.612 77.2853 29.612C69.3293 29.612 64.6493 23.672 64.6493 16.256C64.6493 8.624 69.3293 2.684 77.2853 2.684C82.5413 2.684 87.5093 5.924 88.1213 11.756H82.7213C82.0733 8.912 79.9493 7.436 77.2853 7.436C72.2093 7.436 70.3013 11.756 70.3013 16.256C70.3013 20.54 72.2093 24.86 77.2853 24.86C80.9573 24.86 83.0813 22.88 83.4053 19.316H77.7173V15.104H88.5173V29H84.9173Z" fill="white"/>
<path d="M122.253 29L121.677 26.084C119.697 28.64 117.105 29.612 114.621 29.612C106.665 29.612 101.985 23.672 101.985 16.256C101.985 8.624 106.665 2.684 114.621 2.684C119.877 2.684 124.845 5.924 125.457 11.756H120.057C119.409 8.912 117.285 7.436 114.621 7.436C109.545 7.436 107.637 11.756 107.637 16.256C107.637 20.54 109.545 24.86 114.621 24.86C118.293 24.86 120.417 22.88 120.741 19.316H115.053V15.104H125.853V29H122.253ZM130.418 29V3.296H136.07V24.248H148.598V29H130.418ZM150.641 16.256C150.641 8.624 155.321 2.684 163.277 2.684C171.233 2.684 175.913 8.624 175.913 16.256C175.913 23.672 171.233 29.612 163.277 29.612C155.321 29.612 150.641 23.672 150.641 16.256ZM156.293 16.256C156.293 20.54 158.201 24.86 163.277 24.86C168.353 24.86 170.261 20.54 170.261 16.256C170.261 11.756 168.353 7.436 163.277 7.436C158.201 7.436 156.293 11.756 156.293 16.256ZM185.429 17.552V24.608H191.477C193.709 24.608 195.653 23.888 195.653 21.224C195.653 18.596 193.997 17.552 191.585 17.552H185.429ZM179.777 29V3.296H191.873C196.769 3.296 200.081 4.88 200.081 9.668C200.081 12.188 198.821 13.952 196.589 15.032C199.721 15.932 201.305 18.344 201.305 21.548C201.305 26.768 196.877 29 192.233 29H179.777ZM185.429 7.688V13.7H191.153C193.133 13.7 194.609 12.8 194.609 10.64C194.609 8.192 192.737 7.688 190.721 7.688H185.429ZM202.389 29L212.145 3.296H217.941L227.553 29H221.685L219.741 23.276H210.129L208.113 29H202.389ZM214.953 9.632L211.605 19.064H218.265L215.025 9.632H214.953ZM229.769 29V3.296H235.421V24.248H247.949V29H229.769Z" fill="#DCC517"/>
</svg>
