<svg width="1200" height="1994" viewBox="0 0 1200 1994" fill="none" xmlns="http://www.w3.org/2000/svg">
<rect x="156" width="960" height="120" fill="#9B5B5B"/>
<rect x="176" y="450" width="240" height="120" fill="#9B5B5B"/>
<rect y="1284" width="514" height="120" transform="rotate(-90 0 1284)" fill="#9B5B5B"/>
<rect x="507.685" y="1634" width="200" height="200" transform="rotate(46.338 507.685 1634)" fill="#9B5B5B"/>
<rect x="6" y="1984" width="514" height="260" transform="rotate(-90 6 1984)" fill="#567AAE"/>
<rect x="806" y="450" width="240" height="120" fill="#9B5B5B"/>
<rect x="738" y="133.938" width="80" height="10.0625" fill="black"/>
<rect x="738.25" y="121.25" width="79.5" height="12.4375" fill="white" stroke="black" stroke-width="0.5"/>
<rect x="200" y="132.938" width="80" height="10.0625" fill="black"/>
<rect x="200.25" y="120.25" width="79.5" height="12.4375" fill="white" stroke="black" stroke-width="0.5"/>
<rect x="16" y="333" width="240" height="10.0625" transform="rotate(-90 16 333)" fill="black"/>
<rect x="16" y="573" width="240" height="10.0625" transform="rotate(-90 16 573)" fill="black"/>
<rect x="246" y="582.938" width="80" height="10.0625" fill="black"/>
<rect x="246.25" y="570.25" width="79.5" height="12.4375" fill="white" stroke="black" stroke-width="0.5"/>
<rect x="132.938" y="956" width="80" height="10.0625" transform="rotate(-90 132.938 956)" fill="black"/>
<rect x="120.25" y="955.75" width="79.5" height="12.4375" transform="rotate(-90 120.25 955.75)" fill="white" stroke="black" stroke-width="0.5"/>
<rect x="132.938" y="1182" width="80" height="10.0625" transform="rotate(-90 132.938 1182)" fill="black"/>
<rect x="120.25" y="1181.75" width="79.5" height="12.4375" transform="rotate(-90 120.25 1181.75)" fill="white" stroke="black" stroke-width="0.5"/>
<rect x="70.0625" y="1660" width="80" height="10.0625" transform="rotate(90 70.0625 1660)" fill="black"/>
<rect x="82.75" y="1660.25" width="79.5" height="12.4375" transform="rotate(90 82.75 1660.25)" fill="white" stroke="black" stroke-width="0.5"/>
<rect x="886" y="583.938" width="80" height="10.0625" fill="black"/>
<rect x="886.25" y="571.25" width="79.5" height="12.4375" fill="white" stroke="black" stroke-width="0.5"/>
<rect x="612.325" y="1726.48" width="80" height="10.0625" transform="rotate(-132.107 612.325 1726.48)" fill="black"/>
<rect x="605.103" y="1734.8" width="79.5" height="12.4375" transform="rotate(-132.107 605.103 1734.8)" fill="white" stroke="black" stroke-width="0.5"/>
<rect x="383.415" y="1814.53" width="80" height="10.0625" transform="rotate(46.8989 383.415 1814.53)" fill="black"/>
<rect x="390.491" y="1806.08" width="79.5" height="12.4375" transform="rotate(46.8989 390.491 1806.08)" fill="white" stroke="black" stroke-width="0.5"/>
<rect x="444.024" y="1669.49" width="80" height="10.0625" transform="rotate(133.809 444.024 1669.49)" fill="black"/>
<rect x="452.839" y="1676.1" width="79.5" height="12.4375" transform="rotate(133.809 452.839 1676.1)" fill="white" stroke="black" stroke-width="0.5"/>
<rect x="556.048" y="1885.78" width="80" height="10.0625" transform="rotate(-44.6448 556.048 1885.78)" fill="black"/>
<rect x="547.415" y="1878.93" width="79.5" height="12.4375" transform="rotate(-44.6448 547.415 1878.93)" fill="white" stroke="black" stroke-width="0.5"/>
<rect x="469" y="133.938" width="80" height="10.0625" fill="black"/>
<rect x="469.25" y="121.25" width="79.5" height="12.4375" fill="white" stroke="black" stroke-width="0.5"/>
<rect x="1007" y="132.938" width="80" height="10.0625" fill="black"/>
<rect x="1007.25" y="120.25" width="79.5" height="12.4375" fill="white" stroke="black" stroke-width="0.5"/>
<line x1="1060" y1="813.5" x2="1200" y2="813.5" stroke="black"/>
<rect y="654" width="441" height="30" fill="#F0F2F5"/>
<rect y="770" width="106" height="30" fill="#666464"/>
<rect y="1254" width="106" height="30" fill="#666464"/>
<rect y="1012" width="106" height="30" fill="#666464"/>
<rect x="658" y="654" width="542" height="30" fill="#F0F2F5"/>
<rect x="760" y="854" width="300" height="270" fill="#CA9797" fill-opacity="0.36"/>
<rect x="760" y="1124" width="440" height="870" fill="white"/>
<rect x="690" y="1464" width="70" height="524" fill="white"/>
<rect x="1060" y="684" width="140" height="450" fill="white"/>
<rect x="978.5" y="876.5" width="67" height="117" stroke="black" stroke-width="5"/>
<path d="M956 1046.5H1053.5V1101.5H956C940.812 1101.5 928.5 1089.19 928.5 1074C928.5 1058.81 940.812 1046.5 956 1046.5Z" stroke="black" stroke-width="5"/>
<line x1="890" y1="852.5" x2="1060" y2="852.5" stroke="black" stroke-width="3"/>
<rect x="976" y="684" width="84" height="166" fill="#6BD46F"/>
<rect x="83" y="1824" width="240" height="120" transform="rotate(-90 83 1824)" fill="#9B5B5B"/>
<rect x="955" y="684" width="20" height="166" fill="#868585"/>
<rect x="946" y="344" width="100" height="100" fill="#EECCCC"/>
</svg>
