<svg xmlns="http://www.w3.org/2000/svg" viewBox="0 0 25 25"><defs><style>.cls-1{fill:#fce400;}.cls-2{fill:#1d1d1b;}</style></defs><g id="Capa_2" data-name="Capa 2"><g id="Capa_1-2" data-name="Capa 1"><circle class="cls-1" cx="12.5" cy="12.5" r="12.5"/><path class="cls-2" d="M7.12,5h6.11c3,0,4.12,1.68,4.12,4,0,2-.78,3.3-2.56,3.57v0c1.89.17,2.46,1.37,2.46,3.36v1.29a6.38,6.38,0,0,0,.18,2.07,1.06,1.06,0,0,0,.45.47V20H13.72a7.87,7.87,0,0,1-.38-2.86v-1c0-1.7-.34-2.14-1.28-2.14H11v6H7.12ZM11,11.35h.78c1.11,0,1.64-.72,1.64-1.79,0-1.22-.49-1.74-1.66-1.74H11Z"/></g></g></svg>