<svg xmlns="http://www.w3.org/2000/svg" viewBox="0 0 25 25"><defs><style>.cls-1{fill:#fce400;}.cls-2{fill:#1d1d1b;}</style></defs><g id="Capa_2" data-name="Capa 2"><g id="Capa_1-2" data-name="Capa 1"><circle class="cls-1" cx="12.5" cy="12.5" r="12.5"/><path class="cls-2" d="M13.62,9.33V9c0-.88-.35-1.61-1.11-1.61a1.21,1.21,0,0,0-1.22,1.32c0,3,6.39,1.51,6.39,7,0,3.19-1.87,4.62-5.32,4.62-3.23,0-5-1.11-5-4.22v-.53H11.1v.36c0,1.28.53,1.74,1.28,1.74a1.29,1.29,0,0,0,1.26-1.44c0-3-6.13-1.5-6.13-6.81,0-3,1.62-4.68,4.92-4.68s4.85,1.41,4.85,4.62Z"/></g></g></svg>